<?xml version="1.0" encoding="UTF-8" standalone="no"?>
<!-- Created with Inkscape (http://www.inkscape.org/) -->

<svg
   width="108.48mm"
   height="108.48003mm"
   viewBox="0 0 108.47999 108.48003"
   version="1.1"
   id="svg1"
   inkscape:version="1.4 (e7c3feb100, 2024-10-09)"
   sodipodi:docname="QR.svg"
   xmlns:inkscape="http://www.inkscape.org/namespaces/inkscape"
   xmlns:sodipodi="http://sodipodi.sourceforge.net/DTD/sodipodi-0.dtd"
   xmlns="http://www.w3.org/2000/svg"
   xmlns:svg="http://www.w3.org/2000/svg">
  <sodipodi:namedview
     id="namedview1"
     pagecolor="#ffffff"
     bordercolor="#000000"
     borderopacity="0.25"
     inkscape:showpageshadow="2"
     inkscape:pageopacity="0.0"
     inkscape:pagecheckerboard="0"
     inkscape:deskcolor="#d1d1d1"
     inkscape:document-units="mm"
     inkscape:zoom="0.74079555"
     inkscape:cx="62.770355"
     inkscape:cy="405.64499"
     inkscape:window-width="1920"
     inkscape:window-height="1044"
     inkscape:window-x="0"
     inkscape:window-y="0"
     inkscape:window-maximized="1"
     inkscape:current-layer="g2" />
  <defs
     id="defs1" />
  <g
     inkscape:label="Calque 1"
     inkscape:groupmode="layer"
     id="layer1"
     transform="translate(-104.935,-148.5)">
    <g
       inkscape:label="QR Code: https://floriancr.github.io/presentation-journeetrefle"
       transform="matrix(0.264583,0,0,0.264583,104.935,148.5)"
       id="g2">
      <rect
         style="display:none;fill:#e7e2d1;stroke-width:4.72444"
         id="rect1"
         width="410.00366"
         height="410.00375"
         x="0"
         y="0" />
      <g
         style="fill:#000000;stroke:none"
         id="g1"
         transform="scale(2.5000221)">
        <path
           d="m 139.6,148 h -11.2 c -0.221,0 -0.4,-0.179 -0.4,-0.4 v -3.2 c 0,-0.221 -0.179,-0.4 -0.4,-0.4 h -3.2 c -0.221,0 -0.4,-0.179 -0.4,-0.4 v -3.2 c 0,-0.221 -0.179,-0.4 -0.4,-0.4 H 120 v -3.6 c 0,-0.221 0.179,-0.4 0.4,-0.4 h 3.2 c 0.221,0 0.4,-0.179 0.4,-0.4 v -3.2 c 0,-0.221 -0.179,-0.4 -0.4,-0.4 H 100 v -3.6 c 0,-0.221 -0.1791,-0.4 -0.4,-0.4 h -3.2 c -0.2209,0 -0.4,0.179 -0.4,0.4 v 3.6 h -4 v -16 h 3.6 c 0.2209,0 0.4,0.179 0.4,0.4 v 7.2 c 0,0.221 0.1791,0.4 0.4,0.4 h 11.2 c 0.221,0 0.4,-0.179 0.4,-0.4 v -3.2 c 0,-0.221 -0.179,-0.4 -0.4,-0.4 h -3.2 c -0.221,0 -0.4,-0.179 -0.4,-0.4 v -7.2 c 0,-0.221 0.179,-0.4 0.4,-0.4 h 3.2 c 0.221,0 0.4,-0.179 0.4,-0.4 V 96 h 4 v 15.6 c 0,0.221 0.179,0.4 0.4,0.4 h 3.2 c 0.221,0 0.4,-0.179 0.4,-0.4 v -7.2 c 0,-0.221 0.179,-0.4 0.4,-0.4 h 3.2 c 0.221,0 0.4,-0.179 0.4,-0.4 V 100 h 3.6 c 0.221,0 0.4,0.179 0.4,0.4 v 7.2 c 0,0.221 0.179,0.4 0.4,0.4 h 7.2 c 0.221,0 0.4,-0.179 0.4,-0.4 V 96 h 7.6 c 0.221,0 0.4,-0.1791 0.4,-0.4 v -3.2 c 0,-0.2209 -0.179,-0.4 -0.4,-0.4 h -3.2 C 136.179,92 136,91.8209 136,91.6 V 88 h 3.6 c 0.221,0 0.4,-0.1791 0.4,-0.4 V 84 h 7.6 c 0.221,0 0.4,0.1791 0.4,0.4 v 3.2 c 0,0.2209 -0.179,0.4 -0.4,0.4 h -3.2 c -0.221,0 -0.4,0.1791 -0.4,0.4 V 100 h -3.6 c -0.221,0 -0.4,0.179 -0.4,0.4 v 3.6 h -3.6 c -0.221,0 -0.4,0.179 -0.4,0.4 v 7.2 c 0,0.221 -0.179,0.4 -0.4,0.4 h -3.2 c -0.221,0 -0.4,0.179 -0.4,0.4 v 3.2 c 0,0.221 0.179,0.4 0.4,0.4 h 3.2 c 0.221,0 0.4,0.179 0.4,0.4 v 3.2 c 0,0.221 -0.179,0.4 -0.4,0.4 h -3.2 c -0.221,0 -0.4,0.179 -0.4,0.4 v 3.2 c 0,0.221 0.179,0.4 0.4,0.4 h 11.2 c 0.221,0 0.4,0.179 0.4,0.4 v 3.2 c 0,0.221 0.179,0.4 0.4,0.4 h 3.2 c 0.221,0 0.4,0.179 0.4,0.4 v 7.2 c 0,0.221 -0.179,0.4 -0.4,0.4 h -3.2 c -0.221,0 -0.4,-0.179 -0.4,-0.4 v -3.2 c 0,-0.221 -0.179,-0.4 -0.4,-0.4 h -7.2 c -0.221,0 -0.4,-0.179 -0.4,-0.4 v -3.2 c 0,-0.221 -0.179,-0.4 -0.4,-0.4 h -3.2 c -0.221,0 -0.4,0.179 -0.4,0.4 v 3.2 c 0,0.221 -0.179,0.4 -0.4,0.4 h -3.2 c -0.221,0 -0.4,0.179 -0.4,0.4 v 7.2 c 0,0.221 0.179,0.4 0.4,0.4 h 3.6 v 3.6 c 0,0.221 0.179,0.4 0.4,0.4 h 7.2 c 0.221,0 0.4,0.179 0.4,0.4 v 3.2 c 0,0.221 -0.179,0.4 -0.4,0.4 z m -28,0 h -11.2 c -0.221,0 -0.4,-0.179 -0.4,-0.4 v -3.2 c 0,-0.221 0.179,-0.4 0.4,-0.4 h 7.2 c 0.221,0 0.4,-0.179 0.4,-0.4 v -7.2 c 0,-0.221 0.179,-0.4 0.4,-0.4 h 3.2 c 0.221,0 0.4,0.179 0.4,0.4 v 3.2 c 0,0.221 0.179,0.4 0.4,0.4 h 7.6 v 3.6 c 0,0.221 -0.179,0.4 -0.4,0.4 h -7.2 c -0.221,0 -0.4,0.179 -0.4,0.4 v 3.2 c 0,0.221 -0.179,0.4 -0.4,0.4 z m -16,0 H 76.4 c -0.2209,0 -0.4,-0.179 -0.4,-0.4 v -3.2 C 76,144.179 75.8209,144 75.6,144 H 64.4 c -0.2209,0 -0.4,-0.179 -0.4,-0.4 v -3.2 c 0,-0.221 0.1791,-0.4 0.4,-0.4 h 3.2 c 0.2209,0 0.4,-0.179 0.4,-0.4 v -3.2 C 68,136.179 67.8209,136 67.6,136 H 64.4 C 64.1791,136 64,135.821 64,135.6 V 132 h 12 v 7.6 c 0,0.221 0.1791,0.4 0.4,0.4 h 7.2 c 0.2209,0 0.4,-0.179 0.4,-0.4 v -11.2 c 0,-0.221 0.1791,-0.4 0.4,-0.4 h 3.2 c 0.2209,0 0.4,0.179 0.4,0.4 v 3.2 c 0,0.221 0.1791,0.4 0.4,0.4 H 92 v 3.6 c 0,0.221 -0.1791,0.4 -0.4,0.4 h -3.2 c -0.2209,0 -0.4,0.179 -0.4,0.4 v 7.2 c 0,0.221 0.1791,0.4 0.4,0.4 h 7.2 c 0.2209,0 0.4,0.179 0.4,0.4 v 3.2 c 0,0.221 -0.1791,0.4 -0.4,0.4 z m -40,0 h -7.2 c -0.2209,0 -0.4,-0.179 -0.4,-0.4 v -3.2 c 0,-0.221 0.1791,-0.4 0.4,-0.4 H 56 v 3.6 c 0,0.221 -0.1791,0.4 -0.4,0.4 z m -12,0 H 16.4 c -0.2209,0 -0.4,-0.179 -0.4,-0.4 v -27.2 c 0,-0.221 0.1791,-0.4 0.4,-0.4 h 27.2 c 0.2209,0 0.4,0.179 0.4,0.4 v 27.2 c 0,0.221 -0.1791,0.4 -0.4,0.4 z m 104,-4 h -3.2 c -0.221,0 -0.4,-0.179 -0.4,-0.4 v -3.2 c 0,-0.221 0.179,-0.4 0.4,-0.4 h 3.2 c 0.221,0 0.4,0.179 0.4,0.4 v 3.2 c 0,0.221 -0.179,0.4 -0.4,0.4 z m -88,0 H 56 v -8 h 3.6 c 0.2209,0 0.4,0.179 0.4,0.4 v 7.2 c 0,0.221 -0.1791,0.4 -0.4,0.4 z M 40,143.6 V 124.4 C 40,124.179 39.8209,124 39.6,124 H 20.4 c -0.2209,0 -0.4,0.179 -0.4,0.4 v 19.2 c 0,0.221 0.1791,0.4 0.4,0.4 h 19.2 c 0.2209,0 0.4,-0.179 0.4,-0.4 z M 139.6,140 H 132 v -3.6 c 0,-0.221 0.179,-0.4 0.4,-0.4 h 7.2 c 0.221,0 0.4,0.179 0.4,0.4 v 3.2 c 0,0.221 -0.179,0.4 -0.4,0.4 z m -88,0 h -3.2 c -0.2209,0 -0.4,-0.179 -0.4,-0.4 v -7.2 c 0,-0.221 0.1791,-0.4 0.4,-0.4 h 3.2 c 0.2209,0 0.4,-0.179 0.4,-0.4 v -3.2 C 52,128.179 51.8209,128 51.6,128 H 48.4 C 48.1791,128 48,127.821 48,127.6 V 112 h 4 v 11.6 c 0,0.221 0.1791,0.4 0.4,0.4 h 3.2 c 0.2209,0 0.4,-0.179 0.4,-0.4 v -3.2 c 0,-0.221 0.1791,-0.4 0.4,-0.4 h 7.2 c 0.2209,0 0.4,0.179 0.4,0.4 V 132 h -3.6 c -0.2209,0 -0.4,-0.179 -0.4,-0.4 v -3.2 c 0,-0.221 -0.1791,-0.4 -0.4,-0.4 h -3.2 c -0.2209,0 -0.4,0.179 -0.4,0.4 v 7.6 h -3.6 c -0.2209,0 -0.4,0.179 -0.4,0.4 v 3.2 c 0,0.221 -0.1791,0.4 -0.4,0.4 z m -16,0 H 24.4 c -0.2209,0 -0.4,-0.179 -0.4,-0.4 v -11.2 c 0,-0.221 0.1791,-0.4 0.4,-0.4 h 11.2 c 0.2209,0 0.4,0.179 0.4,0.4 v 11.2 c 0,0.221 -0.1791,0.4 -0.4,0.4 z m 64,-4 H 96.4 C 96.1791,136 96,135.821 96,135.6 V 132 h 4 v 3.6 c 0,0.221 -0.1791,0.4 -0.4,0.4 z m -20,-4 H 76 v -7.6 c 0,-0.221 0.1791,-0.4 0.4,-0.4 h 3.2 c 0.2209,0 0.4,0.179 0.4,0.4 v 7.2 c 0,0.221 -0.1791,0.4 -0.4,0.4 z m 48.4,-4.4 v -11.2 c 0,-0.221 -0.179,-0.4 -0.4,-0.4 h -11.2 c -0.221,0 -0.4,0.179 -0.4,0.4 v 11.2 c 0,0.221 0.179,0.4 0.4,0.4 h 11.2 c 0.221,0 0.4,-0.179 0.4,-0.4 z M 71.6,128 h -3.2 c -0.2209,0 -0.4,-0.179 -0.4,-0.4 v -3.2 c 0,-0.221 0.1791,-0.4 0.4,-0.4 h 3.2 c 0.2209,0 0.4,0.179 0.4,0.4 v 3.2 c 0,0.221 -0.1791,0.4 -0.4,0.4 z m 52,-4 h -3.2 c -0.221,0 -0.4,-0.179 -0.4,-0.4 v -3.2 c 0,-0.221 0.179,-0.4 0.4,-0.4 h 3.2 c 0.221,0 0.4,0.179 0.4,0.4 v 3.2 c 0,0.221 -0.179,0.4 -0.4,0.4 z m 20,-4 h -3.2 c -0.221,0 -0.4,-0.179 -0.4,-0.4 V 104 h 3.6 c 0.221,0 0.4,-0.179 0.4,-0.4 V 100 h 3.6 c 0.221,0 0.4,0.179 0.4,0.4 v 11.2 c 0,0.221 -0.179,0.4 -0.4,0.4 h -3.2 c -0.221,0 -0.4,0.179 -0.4,0.4 v 7.2 c 0,0.221 -0.179,0.4 -0.4,0.4 z m -56,0 H 72.4 c -0.2209,0 -0.4,-0.179 -0.4,-0.4 v -7.2 C 72,112.179 71.8209,112 71.6,112 H 68.4 C 68.1791,112 68,111.821 68,111.6 V 96 h 3.6 c 0.2209,0 0.4,0.1791 0.4,0.4 v 11.2 c 0,0.221 0.1791,0.4 0.4,0.4 h 3.2 c 0.2209,0 0.4,0.179 0.4,0.4 v 3.2 c 0,0.221 0.1791,0.4 0.4,0.4 H 80 v 3.6 c 0,0.221 0.1791,0.4 0.4,0.4 h 3.2 c 0.2209,0 0.4,-0.179 0.4,-0.4 V 112 h 7.6 c 0.2209,0 0.4,0.179 0.4,0.4 v 3.6 h -3.6 c -0.2209,0 -0.4,0.179 -0.4,0.4 v 3.2 c 0,0.221 -0.1791,0.4 -0.4,0.4 z m -44,-4 H 32.4 c -0.2209,0 -0.4,-0.179 -0.4,-0.4 v -3.2 c 0,-0.221 0.1791,-0.4 0.4,-0.4 H 44 v 3.6 c 0,0.221 -0.1791,0.4 -0.4,0.4 z m -24,0 h -3.2 c -0.2209,0 -0.4,-0.179 -0.4,-0.4 v -3.2 c 0,-0.221 0.1791,-0.4 0.4,-0.4 H 20 v 3.6 c 0,0.221 -0.1791,0.4 -0.4,0.4 z m 64,-4 H 80 v -8 h 3.6 c 0.2209,0 0.4,0.179 0.4,0.4 v 7.6 z m -24,0 H 52 v -8 h 3.6 c 0.2209,0 0.4,0.179 0.4,0.4 v 3.2 c 0,0.221 0.1791,0.4 0.4,0.4 H 60 v 3.6 c 0,0.221 -0.1791,0.4 -0.4,0.4 z m -12,0 H 44 v -3.6 c 0,-0.221 -0.1791,-0.4 -0.4,-0.4 h -3.2 c -0.2209,0 -0.4,-0.179 -0.4,-0.4 v -3.2 c 0,-0.221 0.1791,-0.4 0.4,-0.4 h 3.2 c 0.2209,0 0.4,-0.179 0.4,-0.4 v -3.2 c 0,-0.221 -0.1791,-0.4 -0.4,-0.4 h -7.2 c -0.2209,0 -0.4,0.179 -0.4,0.4 v 7.2 c 0,0.221 -0.1791,0.4 -0.4,0.4 h -3.2 c -0.2209,0 -0.4,-0.179 -0.4,-0.4 v -7.2 c 0,-0.221 -0.1791,-0.4 -0.4,-0.4 h -3.2 c -0.2209,0 -0.4,0.179 -0.4,0.4 v 3.2 c 0,0.221 -0.1791,0.4 -0.4,0.4 H 16.4 c -0.2209,0 -0.4,-0.179 -0.4,-0.4 v -3.2 c 0,-0.221 0.1791,-0.4 0.4,-0.4 h 3.2 c 0.2209,0 0.4,-0.1791 0.4,-0.4 V 96 h 7.6 C 27.8209,96 28,95.8209 28,95.6 V 88.4 C 28,88.1791 28.1791,88 28.4,88 h 3.2 c 0.2209,0 0.4,0.1791 0.4,0.4 v 3.2 c 0,0.2209 0.1791,0.4 0.4,0.4 h 3.2 C 35.8209,92 36,91.8209 36,91.6 V 84.4 C 36,84.1791 36.1791,84 36.4,84 H 40 v 3.6 c 0,0.2209 0.1791,0.4 0.4,0.4 h 3.2 C 43.8209,88 44,87.8209 44,87.6 V 84 h 4 v 3.6 c 0,0.2209 0.1791,0.4 0.4,0.4 h 3.2 C 51.8209,88 52,87.8209 52,87.6 V 84.4 C 52,84.1791 51.8209,84 51.6,84 H 48 v -4 h 3.6 C 51.8209,80 52,79.8209 52,79.6 V 76 h 3.6 c 0.2209,0 0.4,0.1791 0.4,0.4 v 7.2 c 0,0.2209 0.1791,0.4 0.4,0.4 H 60 v 4 H 56.4 C 56.1791,88 56,88.1791 56,88.4 v 3.2 c 0,0.2209 0.1791,0.4 0.4,0.4 H 60 v 7.6 c 0,0.2209 -0.1791,0.4 -0.4,0.4 H 56.4 C 56.1791,100 56,99.8209 56,99.6 V 96.4 C 56,96.1791 55.8209,96 55.6,96 H 48.4 C 48.1791,96 48,96.1791 48,96.4 v 3.2 c 0,0.2209 0.1791,0.4 0.4,0.4 h 3.2 c 0.2209,0 0.4,0.179 0.4,0.4 v 3.6 h -3.6 c -0.2209,0 -0.4,0.179 -0.4,0.4 v 7.6 z m -20,0 H 20 v -3.6 c 0,-0.221 0.1791,-0.4 0.4,-0.4 h 7.2 c 0.2209,0 0.4,0.179 0.4,0.4 v 3.2 c 0,0.221 -0.1791,0.4 -0.4,0.4 z m 76,-4 h -7.2 c -0.2209,0 -0.4,-0.179 -0.4,-0.4 v -3.2 C 96,104.179 95.8209,104 95.6,104 H 88.4 C 88.1791,104 88,103.821 88,103.6 V 96.4 C 88,96.1791 88.1791,96 88.4,96 h 3.2 C 91.8209,96 92,95.8209 92,95.6 V 92.4 C 92,92.1791 92.1791,92 92.4,92 H 96 v 7.6 c 0,0.2209 0.1791,0.4 0.4,0.4 h 3.2 c 0.2209,0 0.4,-0.1791 0.4,-0.4 v -3.2 c 0,-0.2209 0.179,-0.4 0.4,-0.4 h 3.6 v 11.6 c 0,0.221 -0.179,0.4 -0.4,0.4 z m -40,0 H 60 v -3.6 c 0,-0.221 0.1791,-0.4 0.4,-0.4 h 3.2 c 0.2209,0 0.4,0.179 0.4,0.4 v 3.2 c 0,0.221 -0.1791,0.4 -0.4,0.4 z m 16,-4 H 76.4 C 76.1791,104 76,103.821 76,103.6 V 88.4 C 76,88.1791 75.8209,88 75.6,88 H 72 v -8 h 8 v 3.6 c 0,0.2209 0.1791,0.4 0.4,0.4 H 88 v 7.6 C 88,91.8209 87.8209,92 87.6,92 H 84.4 C 84.1791,92 84,92.1791 84,92.4 v 3.2 C 84,95.8209 83.8209,96 83.6,96 H 80.4 C 80.1791,96 80,96.1791 80,96.4 v 7.6 z m 40,-4 h -3.2 c -0.221,0 -0.4,-0.1791 -0.4,-0.4 V 96 h 3.6 c 0.221,0 0.4,0.1791 0.4,0.4 v 3.6 z m 12,-4 h -3.2 C 128.179,96 128,95.8209 128,95.6 V 92.4 C 128,92.1791 127.821,92 127.6,92 H 116 v -3.6 c 0,-0.2209 -0.179,-0.4 -0.4,-0.4 h -7.2 c -0.221,0 -0.4,0.1791 -0.4,0.4 V 96 h -4 V 92.4 C 104,92.1791 103.821,92 103.6,92 H 96 V 76.4 C 96,76.1791 95.8209,76 95.6,76 H 88.4 C 88.1791,76 88,75.8209 88,75.6 V 72 h 3.6 C 91.8209,72 92,71.8209 92,71.6 V 68.4 C 92,68.1791 91.8209,68 91.6,68 H 88 V 60.4 C 88,60.1791 87.8209,60 87.6,60 H 80 V 52.4 C 80,52.1791 80.1791,52 80.4,52 H 84 v 3.6 c 0,0.2209 0.1791,0.4 0.4,0.4 H 92 v 3.6 c 0,0.2209 0.1791,0.4 0.4,0.4 h 3.2 c 0.2209,0 0.4,0.1791 0.4,0.4 v 11.2 c 0,0.2209 0.1791,0.4 0.4,0.4 h 3.2 c 0.2209,0 0.4,-0.1791 0.4,-0.4 v -3.2 c 0,-0.2209 0.179,-0.4 0.4,-0.4 h 3.6 v 11.6 c 0,0.2209 0.179,0.4 0.4,0.4 h 3.6 v 3.6 c 0,0.2209 0.179,0.4 0.4,0.4 h 3.2 c 0.221,0 0.4,-0.1791 0.4,-0.4 V 80 h 3.6 c 0.221,0 0.4,-0.1791 0.4,-0.4 V 76 h 3.6 c 0.221,0 0.4,-0.1791 0.4,-0.4 v -3.2 c 0,-0.2209 0.179,-0.4 0.4,-0.4 h 3.2 c 0.221,0 0.4,-0.1791 0.4,-0.4 V 64.4 C 124,64.1791 123.821,64 123.6,64 H 120 v -4 h 3.6 c 0.221,0 0.4,-0.1791 0.4,-0.4 V 56.4 C 124,56.1791 123.821,56 123.6,56 H 120 v -7.6 c 0,-0.2209 0.179,-0.4 0.4,-0.4 h 3.2 c 0.221,0 0.4,0.1791 0.4,0.4 v 3.2 c 0,0.2209 0.179,0.4 0.4,0.4 h 3.2 c 0.221,0 0.4,0.1791 0.4,0.4 v 3.2 c 0,0.2209 0.179,0.4 0.4,0.4 h 3.2 c 0.221,0 0.4,-0.1791 0.4,-0.4 v -7.2 c 0,-0.2209 0.179,-0.4 0.4,-0.4 h 3.2 c 0.221,0 0.4,0.1791 0.4,0.4 v 3.2 c 0,0.2209 0.179,0.4 0.4,0.4 h 3.6 v 4 h -3.6 c -0.221,0 -0.4,0.1791 -0.4,0.4 V 68 h -7.6 c -0.221,0 -0.4,0.1791 -0.4,0.4 v 3.2 c 0,0.2209 0.179,0.4 0.4,0.4 h 3.2 c 0.221,0 0.4,0.1791 0.4,0.4 v 3.2 c 0,0.2209 0.179,0.4 0.4,0.4 h 3.2 c 0.221,0 0.4,-0.1791 0.4,-0.4 V 68 h 3.6 c 0.221,0 0.4,-0.1791 0.4,-0.4 v -3.2 c 0,-0.2209 0.179,-0.4 0.4,-0.4 h 3.2 c 0.221,0 0.4,0.1791 0.4,0.4 v 7.2 c 0,0.2209 -0.179,0.4 -0.4,0.4 h -3.2 c -0.221,0 -0.4,0.1791 -0.4,0.4 V 84 h -4 v -3.6 c 0,-0.2209 -0.179,-0.4 -0.4,-0.4 h -3.2 c -0.221,0 -0.4,0.1791 -0.4,0.4 v 3.2 c 0,0.2209 0.179,0.4 0.4,0.4 h 3.6 v 4 h -3.6 c -0.221,0 -0.4,0.1791 -0.4,0.4 V 96 Z m -16,0 H 112 v -3.6 c 0,-0.2209 0.179,-0.4 0.4,-0.4 h 3.6 v 4 z m -48,0 H 64.4 C 64.1791,96 64,95.8209 64,95.6 V 92.4 C 64,92.1791 63.8209,92 63.6,92 H 60 v -4 h 12 v 3.6 C 72,91.8209 71.8209,92 71.6,92 H 68.4 C 68.1791,92 68,92.1791 68,92.4 V 96 Z M 44,95.6 V 92.4 C 44,92.1791 43.8209,92 43.6,92 H 40.4 C 40.1791,92 40,92.1791 40,92.4 v 3.2 c 0,0.2209 0.1791,0.4 0.4,0.4 h 3.2 C 43.8209,96 44,95.8209 44,95.6 Z M 19.6,96 H 16.4 C 16.1791,96 16,95.8209 16,95.6 V 92.4 C 16,92.1791 16.1791,92 16.4,92 H 20 v 4 z m 4,-4 H 20 v -4 h 3.6 c 0.2209,0 0.4,0.1791 0.4,0.4 v 3.2 C 24,91.8209 23.8209,92 23.6,92 Z M 128,87.6 v -7.2 c 0,-0.2209 -0.179,-0.4 -0.4,-0.4 h -3.2 c -0.221,0 -0.4,0.1791 -0.4,0.4 v 7.2 c 0,0.2209 0.179,0.4 0.4,0.4 h 3.2 c 0.221,0 0.4,-0.1791 0.4,-0.4 z m -24,0 v -3.2 c 0,-0.2209 -0.179,-0.4 -0.4,-0.4 h -3.2 c -0.221,0 -0.4,0.1791 -0.4,0.4 v 3.2 c 0,0.2209 0.179,0.4 0.4,0.4 h 3.2 c 0.221,0 0.4,-0.1791 0.4,-0.4 z M 19.6,88 H 16.4 C 16.1791,88 16,87.8209 16,87.6 V 84.4 C 16,84.1791 16.1791,84 16.4,84 h 3.2 c 0.2209,0 0.4,0.1791 0.4,0.4 V 88 Z m 72,-4 H 88 V 80.4 C 88,80.1791 88.1791,80 88.4,80 h 3.2 c 0.2209,0 0.4,0.1791 0.4,0.4 v 3.2 c 0,0.2209 -0.1791,0.4 -0.4,0.4 z m -28,0 H 60 V 80.4 C 60,80.1791 60.1791,80 60.4,80 h 3.2 c 0.2209,0 0.4,0.1791 0.4,0.4 v 3.2 c 0,0.2209 -0.1791,0.4 -0.4,0.4 z m -20,0 H 40 V 80.4 C 40,80.1791 40.1791,80 40.4,80 H 44 v 4 z m -16,0 H 24.4 C 24.1791,84 24,83.8209 24,83.6 V 76 h 7.6 c 0.2209,0 0.4,0.1791 0.4,0.4 v 3.2 C 32,79.8209 31.8209,80 31.6,80 H 28.4 C 28.1791,80 28,80.1791 28,80.4 v 3.2 c 0,0.2209 -0.1791,0.4 -0.4,0.4 z m 84,-4 H 108 v -3.6 c 0,-0.2209 0.179,-0.4 0.4,-0.4 h 3.6 v 4 z m -28,0 H 80 V 76.4 C 80,76.1791 79.8209,76 79.6,76 H 72 V 72.4 C 72,72.1791 72.1791,72 72.4,72 h 7.2 C 79.8209,72 80,71.8209 80,71.6 V 68.4 C 80,68.1791 80.1791,68 80.4,68 H 88 v 4 H 84.4 C 84.1791,72 84,72.1791 84,72.4 v 7.2 c 0,0.2209 -0.1791,0.4 -0.4,0.4 z m -12,0 H 68.4 C 68.1791,80 68,79.8209 68,79.6 V 76.4 C 68,76.1791 68.1791,76 68.4,76 H 72 v 4 z m -24,0 H 44 v -4 h 4 v 4 z m 68,-4 H 112 v -7.6 c 0,-0.2209 0.179,-0.4 0.4,-0.4 h 3.6 v 8 z m -64,0 H 48 V 72.4 C 48,72.1791 48.1791,72 48.4,72 h 3.2 c 0.2209,0 0.4,0.1791 0.4,0.4 V 76 Z m -8,0 H 40.4 C 40.1791,76 40,75.8209 40,75.6 V 72 h 3.6 c 0.2209,0 0.4,0.1791 0.4,0.4 V 76 Z m -20,0 H 20.4 C 20.1791,76 20,75.8209 20,75.6 V 72.4 C 20,72.1791 20.1791,72 20.4,72 h 3.2 c 0.2209,0 0.4,0.1791 0.4,0.4 V 76 Z m 16,-4 H 28.4 C 28.1791,72 28,71.8209 28,71.6 V 68.4 C 28,68.1791 28.1791,68 28.4,68 H 40 v 4 z m 80,-4 H 116 v -3.6 c 0,-0.2209 0.179,-0.4 0.4,-0.4 h 3.6 v 3.6 c 0,0.2209 -0.179,0.4 -0.4,0.4 z m -12,0 H 104 v -7.6 c 0,-0.2209 -0.179,-0.4 -0.4,-0.4 h -3.2 C 100.179,60 100,59.8209 100,59.6 V 56 h 7.6 c 0.221,0 0.4,-0.1791 0.4,-0.4 v -3.2 c 0,-0.2209 0.179,-0.4 0.4,-0.4 h 3.2 c 0.221,0 0.4,0.1791 0.4,0.4 v 11.2 c 0,0.2209 -0.179,0.4 -0.4,0.4 h -3.2 c -0.221,0 -0.4,0.1791 -0.4,0.4 v 3.2 c 0,0.2209 -0.179,0.4 -0.4,0.4 z m -40,0 H 60.4 C 60.1791,68 60,67.8209 60,67.6 V 60 h 3.6 C 63.8209,60 64,59.8209 64,59.6 V 56.4 C 64,56.1791 63.8209,56 63.6,56 H 60.4 C 60.1791,56 60,56.1791 60,56.4 V 60 H 56.4 C 56.1791,60 56,60.1791 56,60.4 v 3.2 C 56,63.8209 55.8209,64 55.6,64 H 52 V 60.4 C 52,60.1791 51.8209,60 51.6,60 H 40.4 C 40.1791,60 40,59.8209 40,59.6 V 56.4 C 40,56.1791 40.1791,56 40.4,56 h 7.2 C 47.8209,56 48,55.8209 48,55.6 V 52 h 4 v 3.6 c 0,0.2209 0.1791,0.4 0.4,0.4 h 3.2 C 55.8209,56 56,55.8209 56,55.6 V 52 h 3.6 C 59.8209,52 60,51.8209 60,51.6 V 48 h 3.6 c 0.2209,0 0.4,0.1791 0.4,0.4 v 3.2 c 0,0.2209 0.1791,0.4 0.4,0.4 h 3.2 c 0.2209,0 0.4,0.1791 0.4,0.4 v 7.2 c 0,0.2209 0.1791,0.4 0.4,0.4 h 3.2 C 71.8209,60 72,59.8209 72,59.6 V 56.4 C 72,56.1791 72.1791,56 72.4,56 h 3.2 c 0.2209,0 0.4,0.1791 0.4,0.4 v 3.2 c 0,0.2209 0.1791,0.4 0.4,0.4 H 80 v 3.6 C 80,63.8209 79.8209,64 79.6,64 H 68.4 C 68.1791,64 68,64.1791 68,64.4 v 3.2 c 0,0.2209 -0.1791,0.4 -0.4,0.4 z m -16,0 H 40 V 64.4 C 40,64.1791 40.1791,64 40.4,64 H 52 v 3.6 c 0,0.2209 -0.1791,0.4 -0.4,0.4 z m -28,0 H 20.4 C 20.1791,68 20,67.8209 20,67.6 V 64.4 C 20,64.1791 20.1791,64 20.4,64 h 3.2 c 0.2209,0 0.4,0.1791 0.4,0.4 v 3.2 C 24,67.8209 23.8209,68 23.6,68 Z M 132,63.6 v -3.2 c 0,-0.2209 -0.179,-0.4 -0.4,-0.4 h -3.2 c -0.221,0 -0.4,0.1791 -0.4,0.4 v 3.2 c 0,0.2209 0.179,0.4 0.4,0.4 h 3.2 c 0.221,0 0.4,-0.1791 0.4,-0.4 z M 35.6,64 H 32.4 C 32.1791,64 32,63.8209 32,63.6 V 60.4 C 32,60.1791 31.8209,60 31.6,60 H 20.4 C 20.1791,60 20,59.8209 20,59.6 V 56.4 C 20,56.1791 19.8209,56 19.6,56 H 16.4 C 16.1791,56 16,55.8209 16,55.6 V 48.4 C 16,48.1791 16.1791,48 16.4,48 h 3.2 c 0.2209,0 0.4,0.1791 0.4,0.4 v 3.2 c 0,0.2209 0.1791,0.4 0.4,0.4 H 24 v 3.6 c 0,0.2209 0.1791,0.4 0.4,0.4 h 3.2 C 27.8209,56 28,55.8209 28,55.6 V 52.4 C 28,52.1791 27.8209,52 27.6,52 H 24 V 48.4 C 24,48.1791 24.1791,48 24.4,48 h 7.2 c 0.2209,0 0.4,0.1791 0.4,0.4 v 3.2 c 0,0.2209 0.1791,0.4 0.4,0.4 H 36 v 11.6 c 0,0.2209 -0.1791,0.4 -0.4,0.4 z m 112,-4 h -7.2 C 140.179,60 140,59.8209 140,59.6 V 56 h 3.6 c 0.221,0 0.4,-0.1791 0.4,-0.4 V 52.4 C 144,52.1791 143.821,52 143.6,52 H 140 v -3.6 c 0,-0.2209 0.179,-0.4 0.4,-0.4 h 7.2 c 0.221,0 0.4,0.1791 0.4,0.4 v 11.2 c 0,0.2209 -0.179,0.4 -0.4,0.4 z m -28,0 h -3.2 c -0.221,0 -0.4,-0.1791 -0.4,-0.4 v -3.2 c 0,-0.2209 0.179,-0.4 0.4,-0.4 h 3.6 v 4 z m -20,-4 H 92 V 52.4 C 92,52.1791 91.8209,52 91.6,52 H 84 v -8 h 4 v 3.6 c 0,0.2209 0.1791,0.4 0.4,0.4 h 3.2 C 91.8209,48 92,47.8209 92,47.6 V 44 h 4 v 3.6 c 0,0.2209 0.1791,0.4 0.4,0.4 h 7.6 v 3.6 c 0,0.2209 -0.179,0.4 -0.4,0.4 h -3.2 c -0.221,0 -0.4,0.1791 -0.4,0.4 V 56 Z m -24,-4 H 72.4 C 72.1791,52 72,51.8209 72,51.6 V 40.4 C 72,40.1791 72.1791,40 72.4,40 h 3.2 c 0.2209,0 0.4,0.1791 0.4,0.4 v 11.2 c 0,0.2209 -0.1791,0.4 -0.4,0.4 z m -20,0 H 52 V 48.4 C 52,48.1791 51.8209,48 51.6,48 H 48 V 40.4 C 48,40.1791 48.1791,40 48.4,40 H 52 v 3.6 c 0,0.2209 0.1791,0.4 0.4,0.4 h 3.2 C 55.8209,44 56,43.8209 56,43.6 V 40 h 3.6 c 0.2209,0 0.4,0.1791 0.4,0.4 V 48 H 56.4 C 56.1791,48 56,48.1791 56,48.4 V 52 Z m -8,0 H 36 V 48.4 C 36,48.1791 36.1791,48 36.4,48 H 48 v 4 z m 68,-4 H 104 V 36.4 c 0,-0.2209 0.179,-0.4 0.4,-0.4 h 3.2 c 0.221,0 0.4,0.1791 0.4,0.4 v 7.2 c 0,0.2209 0.179,0.4 0.4,0.4 h 3.2 c 0.221,0 0.4,-0.1791 0.4,-0.4 V 32 h 3.6 c 0.221,0 0.4,0.1791 0.4,0.4 v 15.2 c 0,0.2209 -0.179,0.4 -0.4,0.4 z m 32,-4 H 120.4 C 120.179,44 120,43.8209 120,43.6 V 16.4 c 0,-0.2209 0.179,-0.4 0.4,-0.4 h 27.2 c 0.221,0 0.4,0.1791 0.4,0.4 v 27.2 c 0,0.2209 -0.179,0.4 -0.4,0.4 z m -48,0 H 96 v -4 h 3.6 c 0.2209,0 0.4,0.1791 0.4,0.4 v 3.2 c 0,0.2209 -0.1791,0.4 -0.4,0.4 z m -8,0 H 88 V 40.4 C 88,40.1791 88.1791,40 88.4,40 H 92 v 4 z m -8,0 H 80.4 C 80.1791,44 80,43.8209 80,43.6 V 40.4 C 80,40.1791 80.1791,40 80.4,40 h 3.2 c 0.2209,0 0.4,0.1791 0.4,0.4 V 44 Z m -16,0 H 64.4 C 64.1791,44 64,43.8209 64,43.6 V 36.4 C 64,36.1791 64.1791,36 64.4,36 h 3.2 c 0.2209,0 0.4,0.1791 0.4,0.4 v 7.2 c 0,0.2209 -0.1791,0.4 -0.4,0.4 z m -24,0 H 16.4 C 16.1791,44 16,43.8209 16,43.6 V 16.4 C 16,16.1791 16.1791,16 16.4,16 h 27.2 c 0.2209,0 0.4,0.1791 0.4,0.4 V 43.6 C 44,43.8209 43.8209,44 43.6,44 Z M 144,39.6 V 20.4 c 0,-0.2209 -0.179,-0.4 -0.4,-0.4 h -19.2 c -0.221,0 -0.4,0.1791 -0.4,0.4 v 19.2 c 0,0.2209 0.179,0.4 0.4,0.4 h 19.2 c 0.221,0 0.4,-0.1791 0.4,-0.4 z M 95.6,40 H 92 V 32.4 C 92,32.1791 92.1791,32 92.4,32 h 3.2 c 0.2209,0 0.4,0.1791 0.4,0.4 V 40 Z m -40,0 H 52 v -8 h 3.6 C 55.8209,32 56,31.8209 56,31.6 V 20 h 3.6 c 0.2209,0 0.4,0.1791 0.4,0.4 V 35.6 C 60,35.8209 59.8209,36 59.6,36 H 56.4 C 56.1791,36 56,36.1791 56,36.4 V 40 Z M 40,39.6 V 20.4 C 40,20.1791 39.8209,20 39.6,20 H 20.4 C 20.1791,20 20,20.1791 20,20.4 v 19.2 c 0,0.2209 0.1791,0.4 0.4,0.4 H 39.6 C 39.8209,40 40,39.8209 40,39.6 Z M 139.6,36 H 128.4 C 128.179,36 128,35.8209 128,35.6 V 24.4 c 0,-0.2209 0.179,-0.4 0.4,-0.4 h 11.2 c 0.221,0 0.4,0.1791 0.4,0.4 v 11.2 c 0,0.2209 -0.179,0.4 -0.4,0.4 z m -64,0 H 72.4 C 72.1791,36 72,35.8209 72,35.6 V 28.4 C 72,28.1791 72.1791,28 72.4,28 h 7.2 C 79.8209,28 80,27.8209 80,27.6 V 24.4 C 80,24.1791 80.1791,24 80.4,24 H 84 v 3.6 c 0,0.2209 0.1791,0.4 0.4,0.4 h 3.2 c 0.2209,0 0.4,0.1791 0.4,0.4 v 3.2 C 88,31.8209 87.8209,32 87.6,32 H 76.4 C 76.1791,32 76,32.1791 76,32.4 v 3.2 c 0,0.2209 -0.1791,0.4 -0.4,0.4 z m -40,0 H 24.4 C 24.1791,36 24,35.8209 24,35.6 V 24.4 C 24,24.1791 24.1791,24 24.4,24 h 11.2 c 0.2209,0 0.4,0.1791 0.4,0.4 v 11.2 c 0,0.2209 -0.1791,0.4 -0.4,0.4 z m 76,-4 h -7.2 C 104.179,32 104,31.8209 104,31.6 V 24 h 4 v 3.6 c 0,0.2209 0.179,0.4 0.4,0.4 h 3.2 c 0.221,0 0.4,0.1791 0.4,0.4 V 32 Z m -44,0 H 64.4 C 64.1791,32 64,31.8209 64,31.6 V 28.4 C 64,28.1791 64.1791,28 64.4,28 h 3.2 c 0.2209,0 0.4,0.1791 0.4,0.4 v 3.2 c 0,0.2209 -0.1791,0.4 -0.4,0.4 z m -16,0 H 48.4 C 48.1791,32 48,31.8209 48,31.6 V 28.4 C 48,28.1791 48.1791,28 48.4,28 h 3.2 c 0.2209,0 0.4,0.1791 0.4,0.4 V 32 Z m 48,-4 H 92.4 C 92.1791,28 92,27.8209 92,27.6 V 24 h 3.6 C 95.8209,24 96,23.8209 96,23.6 V 20.4 C 96,20.1791 95.8209,20 95.6,20 H 92.4 C 92.1791,20 92,20.1791 92,20.4 V 24 H 84 V 20.4 C 84,20.1791 83.8209,20 83.6,20 H 80.4 C 80.1791,20 80,19.8209 80,19.6 V 16.4 C 80,16.1791 80.1791,16 80.4,16 h 23.2 c 0.221,0 0.4,0.1791 0.4,0.4 V 24 h -3.6 c -0.221,0 -0.4,0.1791 -0.4,0.4 v 3.2 c 0,0.2209 -0.1791,0.4 -0.4,0.4 z m 16,-4 H 108 v -7.6 c 0,-0.2209 0.179,-0.4 0.4,-0.4 h 3.2 c 0.221,0 0.4,0.1791 0.4,0.4 v 3.2 c 0,0.2209 0.179,0.4 0.4,0.4 h 3.2 c 0.221,0 0.4,0.1791 0.4,0.4 v 3.2 c 0,0.2209 -0.179,0.4 -0.4,0.4 z m -44,0 H 64.4 C 64.1791,24 64,23.8209 64,23.6 V 20.4 C 64,20.1791 64.1791,20 64.4,20 h 3.2 C 67.8209,20 68,19.8209 68,19.6 V 16.4 C 68,16.1791 68.1791,16 68.4,16 h 7.2 c 0.2209,0 0.4,0.1791 0.4,0.4 v 3.2 C 76,19.8209 75.8209,20 75.6,20 H 72.4 C 72.1791,20 72,20.1791 72,20.4 v 3.2 c 0,0.2209 -0.1791,0.4 -0.4,0.4 z m -20,0 H 48.4 C 48.1791,24 48,23.8209 48,23.6 V 16.4 C 48,16.1791 48.1791,16 48.4,16 h 7.2 c 0.2209,0 0.4,0.1791 0.4,0.4 V 20 H 52.4 C 52.1791,20 52,20.1791 52,20.4 v 3.2 c 0,0.2209 -0.1791,0.4 -0.4,0.4 z"
           id="path1" />
      </g>
    </g>
  </g>
</svg>
