<?xml version="1.0" encoding="UTF-8" standalone="no"?>
<svg
   width="432pt"
   height="288pt"
   viewBox="0 0 432 288"
   version="1.1"
   id="svg120"
   sodipodi:docname="tomo.svg"
   inkscape:version="1.4 (e7c3feb100, 2024-10-09)"
   xmlns:inkscape="http://www.inkscape.org/namespaces/inkscape"
   xmlns:sodipodi="http://sodipodi.sourceforge.net/DTD/sodipodi-0.dtd"
   xmlns:xlink="http://www.w3.org/1999/xlink"
   xmlns="http://www.w3.org/2000/svg"
   xmlns:svg="http://www.w3.org/2000/svg"
   xmlns:rdf="http://www.w3.org/1999/02/22-rdf-syntax-ns#"
   xmlns:cc="http://creativecommons.org/ns#"
   xmlns:dc="http://purl.org/dc/elements/1.1/">
  <sodipodi:namedview
     id="namedview120"
     pagecolor="#ffffff"
     bordercolor="#000000"
     borderopacity="0.25"
     inkscape:showpageshadow="2"
     inkscape:pageopacity="0.0"
     inkscape:pagecheckerboard="0"
     inkscape:deskcolor="#d1d1d1"
     inkscape:document-units="pt"
     inkscape:zoom="3.0625"
     inkscape:cx="288"
     inkscape:cy="191.83673"
     inkscape:window-width="2560"
     inkscape:window-height="1404"
     inkscape:window-x="0"
     inkscape:window-y="0"
     inkscape:window-maximized="1"
     inkscape:current-layer="figure_1" />
  <metadata
     id="metadata1">
    <rdf:RDF>
      <cc:Work>
        <dc:type
           rdf:resource="http://purl.org/dc/dcmitype/StillImage" />
        <dc:date>2026-01-19T20:58:24.137049</dc:date>
        <dc:format>image/svg+xml</dc:format>
        <dc:creator>
          <cc:Agent>
            <dc:title>Matplotlib v3.10.6, https://matplotlib.org/</dc:title>
          </cc:Agent>
        </dc:creator>
      </cc:Work>
    </rdf:RDF>
  </metadata>
  <defs
     id="defs1">
    <style
       type="text/css"
       id="style1">*{stroke-linejoin: round; stroke-linecap: butt}</style>
  </defs>
  <g
     id="figure_1">
    <g
       id="axes_1"
       style="display:inline">
      <g
         id="patch_2">
        <path
           d="M 54,256.32 H 388.8 V 34.56 H 54 Z"
           style="fill:#ffffff"
           id="path2" />
      </g>
      <g
         id="matplotlib.axis_1">
        <g
           id="xtick_1">
          <g
             id="line2d_1">
            <defs
               id="defs2">
              <path
                 id="m49a9ea473c"
                 d="M 0,0 V 3.5"
                 style="stroke:#000000;stroke-width:0.8" />
            </defs>
            <g
               id="g2">
              <use
                 xlink:href="#m49a9ea473c"
                 x="69.218185"
                 y="256.32001"
                 style="stroke:#000000;stroke-width:0.8"
                 id="use2" />
            </g>
          </g>
          <g
             id="text_1">
            <!-- 0 -->
            <g
               transform="matrix(0.1,0,0,-0.1,66.036932,270.91844)"
               id="g3">
              <defs
                 id="defs3">
                <path
                   id="DejaVuSans-30"
                   d="m 2034,4250 q -487,0 -733,-480 -245,-479 -245,-1442 0,-959 245,-1439 246,-480 733,-480 491,0 736,480 246,480 246,1439 0,963 -246,1442 -245,480 -736,480 z m 0,500 q 785,0 1199,-621 414,-620 414,-1801 0,-1178 -414,-1799 -414,-620 -1199,-620 -784,0 -1198,620 -414,621 -414,1799 0,1181 414,1801 414,621 1198,621 z"
                   transform="scale(0.015625)" />
              </defs>
              <use
                 xlink:href="#DejaVuSans-30"
                 id="use3" />
            </g>
          </g>
        </g>
        <g
           id="xtick_2">
          <g
             id="line2d_2">
            <g
               id="g4">
              <use
                 xlink:href="#m49a9ea473c"
                 x="111.96588"
                 y="256.32001"
                 style="stroke:#000000;stroke-width:0.8"
                 id="use4" />
            </g>
          </g>
          <g
             id="text_2">
            <!-- 25 -->
            <g
               transform="matrix(0.1,0,0,-0.1,105.60338,270.91844)"
               id="g6">
              <defs
                 id="defs4">
                <path
                   id="DejaVuSans-32"
                   d="M 1228,531 H 3431 V 0 H 469 v 531 q 359,372 979,998 621,627 780,809 303,340 423,576 121,236 121,464 0,372 -261,606 -261,235 -680,235 -297,0 -627,-103 -329,-103 -704,-313 v 638 q 381,153 712,231 332,78 607,78 725,0 1156,-363 431,-362 431,-968 0,-288 -108,-546 -107,-257 -392,-607 -78,-91 -497,-524 Q 1991,1309 1228,531 Z"
                   transform="scale(0.015625)" />
                <path
                   id="DejaVuSans-35"
                   d="M 691,4666 H 3169 V 4134 H 1269 V 2991 q 137,47 274,70 138,23 276,23 781,0 1237,-428 457,-428 457,-1159 Q 3513,744 3044,326 2575,-91 1722,-91 1428,-91 1123,-41 819,9 494,109 v 635 q 281,-153 581,-228 300,-75 634,-75 541,0 856,284 316,284 316,772 0,487 -316,771 -315,285 -856,285 -253,0 -505,-56 -251,-56 -513,-175 z"
                   transform="scale(0.015625)" />
              </defs>
              <use
                 xlink:href="#DejaVuSans-32"
                 id="use5" />
              <use
                 xlink:href="#DejaVuSans-35"
                 transform="translate(63.623047)"
                 id="use6" />
            </g>
          </g>
        </g>
        <g
           id="xtick_3">
          <g
             id="line2d_3">
            <g
               id="g7">
              <use
                 xlink:href="#m49a9ea473c"
                 x="154.71359"
                 y="256.32001"
                 style="stroke:#000000;stroke-width:0.8"
                 id="use7" />
            </g>
          </g>
          <g
             id="text_3">
            <!-- 50 -->
            <g
               transform="matrix(0.1,0,0,-0.1,148.35108,270.91844)"
               id="g9">
              <use
                 xlink:href="#DejaVuSans-35"
                 id="use8" />
              <use
                 xlink:href="#DejaVuSans-30"
                 transform="translate(63.623047)"
                 id="use9" />
            </g>
          </g>
        </g>
        <g
           id="xtick_4">
          <g
             id="line2d_4">
            <g
               id="g10">
              <use
                 xlink:href="#m49a9ea473c"
                 x="197.46129"
                 y="256.32001"
                 style="stroke:#000000;stroke-width:0.8"
                 id="use10" />
            </g>
          </g>
          <g
             id="text_4">
            <!-- 75 -->
            <g
               transform="matrix(0.1,0,0,-0.1,191.09879,270.91844)"
               id="g12">
              <defs
                 id="defs10">
                <path
                   id="DejaVuSans-37"
                   d="M 525,4666 H 3525 V 4397 L 1831,0 H 1172 L 2766,4134 H 525 Z"
                   transform="scale(0.015625)" />
              </defs>
              <use
                 xlink:href="#DejaVuSans-37"
                 id="use11" />
              <use
                 xlink:href="#DejaVuSans-35"
                 transform="translate(63.623047)"
                 id="use12" />
            </g>
          </g>
        </g>
        <g
           id="xtick_5">
          <g
             id="line2d_5">
            <g
               id="g13">
              <use
                 xlink:href="#m49a9ea473c"
                 x="240.20898"
                 y="256.32001"
                 style="stroke:#000000;stroke-width:0.8"
                 id="use13" />
            </g>
          </g>
          <g
             id="text_5">
            <!-- 100 -->
            <g
               transform="matrix(0.1,0,0,-0.1,230.66524,270.91844)"
               id="g16">
              <defs
                 id="defs13">
                <path
                   id="DejaVuSans-31"
                   d="M 794,531 H 1825 V 4091 L 703,3866 v 575 l 1116,225 h 631 V 531 H 3481 V 0 H 794 Z"
                   transform="scale(0.015625)" />
              </defs>
              <use
                 xlink:href="#DejaVuSans-31"
                 id="use14" />
              <use
                 xlink:href="#DejaVuSans-30"
                 transform="translate(63.623047)"
                 id="use15" />
              <use
                 xlink:href="#DejaVuSans-30"
                 transform="translate(127.24609)"
                 id="use16" />
            </g>
          </g>
        </g>
        <g
           id="xtick_6">
          <g
             id="line2d_6">
            <g
               id="g17">
              <use
                 xlink:href="#m49a9ea473c"
                 x="282.9567"
                 y="256.32001"
                 style="stroke:#000000;stroke-width:0.8"
                 id="use17" />
            </g>
          </g>
          <g
             id="text_6">
            <!-- 125 -->
            <g
               transform="matrix(0.1,0,0,-0.1,273.41294,270.91844)"
               id="g20">
              <use
                 xlink:href="#DejaVuSans-31"
                 id="use18" />
              <use
                 xlink:href="#DejaVuSans-32"
                 transform="translate(63.623047)"
                 id="use19" />
              <use
                 xlink:href="#DejaVuSans-35"
                 transform="translate(127.24609)"
                 id="use20" />
            </g>
          </g>
        </g>
        <g
           id="xtick_7">
          <g
             id="line2d_7">
            <g
               id="g21">
              <use
                 xlink:href="#m49a9ea473c"
                 x="325.70441"
                 y="256.32001"
                 style="stroke:#000000;stroke-width:0.8"
                 id="use21" />
            </g>
          </g>
          <g
             id="text_7">
            <!-- 150 -->
            <g
               transform="matrix(0.1,0,0,-0.1,316.16064,270.91844)"
               id="g24">
              <use
                 xlink:href="#DejaVuSans-31"
                 id="use22" />
              <use
                 xlink:href="#DejaVuSans-35"
                 transform="translate(63.623047)"
                 id="use23" />
              <use
                 xlink:href="#DejaVuSans-30"
                 transform="translate(127.24609)"
                 id="use24" />
            </g>
          </g>
        </g>
        <g
           id="xtick_8">
          <g
             id="line2d_8">
            <g
               id="g25">
              <use
                 xlink:href="#m49a9ea473c"
                 x="368.45209"
                 y="256.32001"
                 style="stroke:#000000;stroke-width:0.8"
                 id="use25" />
            </g>
          </g>
          <g
             id="text_8">
            <!-- 175 -->
            <g
               transform="matrix(0.1,0,0,-0.1,358.90834,270.91844)"
               id="g28">
              <use
                 xlink:href="#DejaVuSans-31"
                 id="use26" />
              <use
                 xlink:href="#DejaVuSans-37"
                 transform="translate(63.623047)"
                 id="use27" />
              <use
                 xlink:href="#DejaVuSans-35"
                 transform="translate(127.24609)"
                 id="use28" />
            </g>
          </g>
        </g>
      </g>
      <g
         id="matplotlib.axis_2">
        <g
           id="ytick_1">
          <g
             id="line2d_9">
            <defs
               id="defs28">
              <path
                 id="mcee5a28307"
                 d="M 0,0 H -3.5"
                 style="stroke:#000000;stroke-width:0.8" />
            </defs>
            <g
               id="g29">
              <use
                 xlink:href="#mcee5a28307"
                 x="54"
                 y="252.28279"
                 style="stroke:#000000;stroke-width:0.8"
                 id="use29" />
            </g>
          </g>
          <g
             id="text_9">
            <!-- −0.005 -->
            <g
               transform="matrix(0.1,0,0,-0.1,9.992188,256.08201)"
               id="g35">
              <defs
                 id="defs29">
                <path
                   id="DejaVuSans-2212"
                   d="M 678,2272 H 4684 V 1741 H 678 Z"
                   transform="scale(0.015625)" />
                <path
                   id="DejaVuSans-2e"
                   d="m 684,794 h 660 V 0 H 684 Z"
                   transform="scale(0.015625)" />
              </defs>
              <use
                 xlink:href="#DejaVuSans-2212"
                 id="use30" />
              <use
                 xlink:href="#DejaVuSans-30"
                 transform="translate(83.789062)"
                 id="use31" />
              <use
                 xlink:href="#DejaVuSans-2e"
                 transform="translate(147.41211)"
                 id="use32" />
              <use
                 xlink:href="#DejaVuSans-30"
                 transform="translate(179.19922)"
                 id="use33" />
              <use
                 xlink:href="#DejaVuSans-30"
                 transform="translate(242.82227)"
                 id="use34" />
              <use
                 xlink:href="#DejaVuSans-35"
                 transform="translate(306.44531)"
                 id="use35" />
            </g>
          </g>
        </g>
        <g
           id="ytick_2">
          <g
             id="line2d_10">
            <g
               id="g36">
              <use
                 xlink:href="#mcee5a28307"
                 x="54"
                 y="221.71304"
                 style="stroke:#000000;stroke-width:0.8"
                 id="use36" />
            </g>
          </g>
          <g
             id="text_10">
            <!-- −0.004 -->
            <g
               transform="matrix(0.1,0,0,-0.1,9.992188,225.51226)"
               id="g42">
              <defs
                 id="defs36">
                <path
                   id="DejaVuSans-34"
                   d="M 2419,4116 825,1625 h 1594 z m -166,550 h 794 V 1625 h 666 V 1100 H 3047 V 0 H 2419 V 1100 H 313 v 609 z"
                   transform="scale(0.015625)" />
              </defs>
              <use
                 xlink:href="#DejaVuSans-2212"
                 id="use37" />
              <use
                 xlink:href="#DejaVuSans-30"
                 transform="translate(83.789062)"
                 id="use38" />
              <use
                 xlink:href="#DejaVuSans-2e"
                 transform="translate(147.41211)"
                 id="use39" />
              <use
                 xlink:href="#DejaVuSans-30"
                 transform="translate(179.19922)"
                 id="use40" />
              <use
                 xlink:href="#DejaVuSans-30"
                 transform="translate(242.82227)"
                 id="use41" />
              <use
                 xlink:href="#DejaVuSans-34"
                 transform="translate(306.44531)"
                 id="use42" />
            </g>
          </g>
        </g>
        <g
           id="ytick_3">
          <g
             id="line2d_11">
            <g
               id="g43">
              <use
                 xlink:href="#mcee5a28307"
                 x="54"
                 y="191.1433"
                 style="stroke:#000000;stroke-width:0.8"
                 id="use43" />
            </g>
          </g>
          <g
             id="text_11">
            <!-- −0.003 -->
            <g
               transform="matrix(0.1,0,0,-0.1,9.992188,194.94252)"
               id="g49">
              <defs
                 id="defs43">
                <path
                   id="DejaVuSans-33"
                   d="m 2597,2516 q 453,-97 707,-404 255,-306 255,-756 0,-690 -475,-1069 -475,-378 -1350,-378 -293,0 -604,58 -311,58 -642,174 v 609 q 262,-153 574,-231 313,-78 654,-78 593,0 904,234 311,234 311,681 0,413 -289,645 -289,233 -804,233 h -544 v 519 h 569 q 465,0 712,186 247,186 247,536 0,359 -255,551 -254,193 -729,193 -260,0 -557,-57 -297,-56 -653,-174 v 562 q 360,100 674,150 314,50 592,50 719,0 1137,-327 419,-326 419,-882 0,-388 -222,-655 -222,-267 -631,-370 z"
                   transform="scale(0.015625)" />
              </defs>
              <use
                 xlink:href="#DejaVuSans-2212"
                 id="use44" />
              <use
                 xlink:href="#DejaVuSans-30"
                 transform="translate(83.789062)"
                 id="use45" />
              <use
                 xlink:href="#DejaVuSans-2e"
                 transform="translate(147.41211)"
                 id="use46" />
              <use
                 xlink:href="#DejaVuSans-30"
                 transform="translate(179.19922)"
                 id="use47" />
              <use
                 xlink:href="#DejaVuSans-30"
                 transform="translate(242.82227)"
                 id="use48" />
              <use
                 xlink:href="#DejaVuSans-33"
                 transform="translate(306.44531)"
                 id="use49" />
            </g>
          </g>
        </g>
        <g
           id="ytick_4">
          <g
             id="line2d_12">
            <g
               id="g50">
              <use
                 xlink:href="#mcee5a28307"
                 x="54"
                 y="160.57356"
                 style="stroke:#000000;stroke-width:0.8"
                 id="use50" />
            </g>
          </g>
          <g
             id="text_12">
            <!-- −0.002 -->
            <g
               transform="matrix(0.1,0,0,-0.1,9.992188,164.37278)"
               id="g56">
              <use
                 xlink:href="#DejaVuSans-2212"
                 id="use51" />
              <use
                 xlink:href="#DejaVuSans-30"
                 transform="translate(83.789062)"
                 id="use52" />
              <use
                 xlink:href="#DejaVuSans-2e"
                 transform="translate(147.41211)"
                 id="use53" />
              <use
                 xlink:href="#DejaVuSans-30"
                 transform="translate(179.19922)"
                 id="use54" />
              <use
                 xlink:href="#DejaVuSans-30"
                 transform="translate(242.82227)"
                 id="use55" />
              <use
                 xlink:href="#DejaVuSans-32"
                 transform="translate(306.44531)"
                 id="use56" />
            </g>
          </g>
        </g>
        <g
           id="ytick_5">
          <g
             id="line2d_13">
            <g
               id="g57">
              <use
                 xlink:href="#mcee5a28307"
                 x="54"
                 y="130.00381"
                 style="stroke:#000000;stroke-width:0.8"
                 id="use57" />
            </g>
          </g>
          <g
             id="text_13">
            <!-- −0.001 -->
            <g
               transform="matrix(0.1,0,0,-0.1,9.992188,133.80303)"
               id="g63">
              <use
                 xlink:href="#DejaVuSans-2212"
                 id="use58" />
              <use
                 xlink:href="#DejaVuSans-30"
                 transform="translate(83.789062)"
                 id="use59" />
              <use
                 xlink:href="#DejaVuSans-2e"
                 transform="translate(147.41211)"
                 id="use60" />
              <use
                 xlink:href="#DejaVuSans-30"
                 transform="translate(179.19922)"
                 id="use61" />
              <use
                 xlink:href="#DejaVuSans-30"
                 transform="translate(242.82227)"
                 id="use62" />
              <use
                 xlink:href="#DejaVuSans-31"
                 transform="translate(306.44531)"
                 id="use63" />
            </g>
          </g>
        </g>
        <g
           id="ytick_6">
          <g
             id="line2d_14">
            <g
               id="g64">
              <use
                 xlink:href="#mcee5a28307"
                 x="54"
                 y="99.434067"
                 style="stroke:#000000;stroke-width:0.8"
                 id="use64" />
            </g>
          </g>
          <g
             id="text_14">
            <!-- 0.000 -->
            <g
               transform="matrix(0.1,0,0,-0.1,18.371875,103.23329)"
               id="g69">
              <use
                 xlink:href="#DejaVuSans-30"
                 id="use65" />
              <use
                 xlink:href="#DejaVuSans-2e"
                 transform="translate(63.623047)"
                 id="use66" />
              <use
                 xlink:href="#DejaVuSans-30"
                 transform="translate(95.410156)"
                 id="use67" />
              <use
                 xlink:href="#DejaVuSans-30"
                 transform="translate(159.0332)"
                 id="use68" />
              <use
                 xlink:href="#DejaVuSans-30"
                 transform="translate(222.65625)"
                 id="use69" />
            </g>
          </g>
        </g>
        <g
           id="ytick_7">
          <g
             id="line2d_15">
            <g
               id="g70">
              <use
                 xlink:href="#mcee5a28307"
                 x="54"
                 y="68.864326"
                 style="stroke:#000000;stroke-width:0.8"
                 id="use70" />
            </g>
          </g>
          <g
             id="text_15">
            <!-- 0.001 -->
            <g
               transform="matrix(0.1,0,0,-0.1,18.371875,72.663545)"
               id="g75">
              <use
                 xlink:href="#DejaVuSans-30"
                 id="use71" />
              <use
                 xlink:href="#DejaVuSans-2e"
                 transform="translate(63.623047)"
                 id="use72" />
              <use
                 xlink:href="#DejaVuSans-30"
                 transform="translate(95.410156)"
                 id="use73" />
              <use
                 xlink:href="#DejaVuSans-30"
                 transform="translate(159.0332)"
                 id="use74" />
              <use
                 xlink:href="#DejaVuSans-31"
                 transform="translate(222.65625)"
                 id="use75" />
            </g>
          </g>
        </g>
        <g
           id="ytick_8">
          <g
             id="line2d_16">
            <g
               id="g76">
              <use
                 xlink:href="#mcee5a28307"
                 x="54"
                 y="38.294582"
                 style="stroke:#000000;stroke-width:0.8"
                 id="use76" />
            </g>
          </g>
          <g
             id="text_16">
            <!-- 0.002 -->
            <g
               transform="matrix(0.1,0,0,-0.1,18.371875,42.093801)"
               id="g81">
              <use
                 xlink:href="#DejaVuSans-30"
                 id="use77" />
              <use
                 xlink:href="#DejaVuSans-2e"
                 transform="translate(63.623047)"
                 id="use78" />
              <use
                 xlink:href="#DejaVuSans-30"
                 transform="translate(95.410156)"
                 id="use79" />
              <use
                 xlink:href="#DejaVuSans-30"
                 transform="translate(159.0332)"
                 id="use80" />
              <use
                 xlink:href="#DejaVuSans-32"
                 transform="translate(222.65625)"
                 id="use81" />
            </g>
          </g>
        </g>
      </g>
      <g
         id="line2d_17">
        <path
           d="m 69.218182,158.45804 1.709908,-5.67555 1.709908,-13.64238 1.709908,33.97796 1.709908,0.0966 1.709908,3.08062 1.709908,-32.5888 1.709908,9.40761 1.709908,-8.11178 1.709908,20.08796 1.709909,-16.52651 1.709908,-0.001 1.709908,30.12659 1.709908,-31.95955 1.709908,2.41712 1.709908,30.32834 1.709908,-46.18319 1.709908,10.48878 1.709908,-18.59371 1.709913,31.72809 1.7099,-33.17319 1.70991,2.38373 1.70991,7.45977 1.70991,-1.662 1.70991,0.4304 1.7099,-16.11879 1.70991,-10.35374 1.70991,13.52352 1.70991,-0.74104 1.70991,11.16402 1.7099,-4.72371 1.70991,5.30775 3.41982,-19.27277 1.70991,15.08762 1.7099,-10.57537 1.70991,-1.19686 1.70991,6.71329 1.70991,-15.71388 1.70991,20.44883 1.7099,-19.32214 1.70991,11.57499 1.70991,-10.00097 1.70991,13.02465 1.70991,-18.7744 1.7099,3.94936 1.70991,22.93899 1.70991,-14.02849 1.70991,-12.19635 1.70991,36.27626 1.7099,-12.30882 1.70991,-21.74843 1.70991,-1.13729 1.70991,-10.556251 1.70991,14.980781 1.70991,0.79892 1.7099,-19.107132 1.70991,0.735803 1.70991,13.340439 1.70991,-3.48957 1.70991,12.22076 1.7099,-7.97594 1.70991,-3.52561 1.70991,4.20179 1.70991,-3.37334 1.70991,-12.397531 1.7099,3.238521 1.70991,-8.1394 1.70991,2.791797 1.70991,0.230771 1.70991,20.448992 1.7099,-13.749953 1.70991,10.580603 1.70991,-7.455841 1.70991,-11.043248 1.70991,7.073989 1.7099,-1.240261 1.70991,-3.489497 1.70991,6.255464 1.70991,-4.561931 1.70991,-15.687807 1.7099,-1.438955 1.70991,18.454932 1.70991,-5.914546 1.70991,5.075874 1.70991,4.395 1.70991,-12.530804 1.7099,-3.042961 1.70991,-3.341147 1.70991,15.689077 1.70991,-10.641301 1.70991,5.329033 1.7099,1.233419 1.70991,-1.458246 1.70991,-15.13074 1.70991,15.425855 1.70991,4.862542 1.7099,-11.540454 1.70991,5.242762 1.70991,-1.894888 1.70991,8.089785 1.70991,-9.189871 1.7099,7.571251 1.70991,6.497589 1.70991,-7.384555 1.70991,7.577853 1.70991,-13.36977 1.7099,1.670216 1.70991,7.631756 1.70991,14.749546 1.70991,-10.404737 1.70991,0.407242 1.70991,0.750696 1.7099,-11.01925 1.70991,-8.406809 1.70991,16.078353 1.70991,0.69279 1.70991,-6.640919 1.7099,-4.51749 1.70991,13.589756 1.70991,8.033428 1.70991,-21.407059 1.70991,8.067454 1.7099,-9.964839 1.70991,25.882704 1.70991,-7.17809 1.70991,0.0198 1.70991,-8.024498 1.7099,31.158528 1.70991,-1.21307 1.70991,-14.9286 1.70991,-31.229302 1.70991,51.170722 1.70991,-12.20994 1.7099,10.67258 1.70991,2.70434 1.70991,16.45195 1.70991,-15.0277 1.7099,-44.238451 1.70991,69.104031 1.70991,9.72921 1.70991,-13.28151 1.70991,-11.16117 1.70991,-37.24833 1.7099,57.12505 1.70991,-41.57767 1.70991,40.7009 1.70991,22.43627 1.70991,-1.72255 1.7099,-9.72922 1.70991,35.20745 1.70991,-44.46383 1.70991,41.88313 1.70991,-17.82548 1.7099,9.281 1.70991,26.18666 1.70991,-13.30444 1.70991,-35.70546 1.70991,27.87534 1.7099,-12.26946 1.70991,33.24891 1.70991,6.13955 1.70991,2.24911 1.70991,-15.96566 1.7099,-0.66424 1.70991,-73.44147 1.70991,106.2909 1.70991,-26.84585 1.70991,-8.22733 1.70991,-1.70562 1.7099,-13.10821 1.70991,22.23818 1.70991,-3.61829 1.70991,-26.42942 1.70991,-52.1888 1.7099,56.8461 1.70991,2.04865 1.70991,-4.27542 1.70991,2.23319 v 0"
           clip-path="url(#pdd40d6488a)"
           style="fill:none;stroke:#1f77b4;stroke-width:1.5;stroke-linecap:square"
           id="path81" />
      </g>
      <g
         id="line2d_18">
        <defs
           id="defs81">
          <path
             id="ma4d76023d6"
             d="M 0,1.5 C 0.397805,1.5 0.77937,1.341951 1.06066,1.06066 1.341951,0.77937 1.5,0.397805 1.5,0 1.5,-0.397805 1.341951,-0.77937 1.06066,-1.06066 0.77937,-1.341951 0.397805,-1.5 0,-1.5 c -0.397805,0 -0.77937,0.158049 -1.06066,0.43934 C -1.341951,-0.77937 -1.5,-0.397805 -1.5,0 c 0,0.397805 0.158049,0.77937 0.43934,1.06066 C -0.77937,1.341951 -0.397805,1.5 0,1.5 Z"
             style="stroke:#ff7f0e" />
        </defs>
        <g
           clip-path="url(#pdd40d6488a)"
           id="g116">
          <use
             xlink:href="#ma4d76023d6"
             x="81.187538"
             y="153.11412"
             style="fill:#ff7f0e;stroke:#ff7f0e"
             id="use82" />
          <use
             xlink:href="#ma4d76023d6"
             x="84.607353"
             y="165.0903"
             style="fill:#ff7f0e;stroke:#ff7f0e"
             id="use83" />
          <use
             xlink:href="#ma4d76023d6"
             x="111.96588"
             y="116.23479"
             style="fill:#ff7f0e;stroke:#ff7f0e"
             id="use84" />
          <use
             xlink:href="#ma4d76023d6"
             x="115.3857"
             y="119.40457"
             style="fill:#ff7f0e;stroke:#ff7f0e"
             id="use85" />
          <use
             xlink:href="#ma4d76023d6"
             x="120.51543"
             y="125.10384"
             style="fill:#ff7f0e;stroke:#ff7f0e"
             id="use86" />
          <use
             xlink:href="#ma4d76023d6"
             x="132.48479"
             y="121.1675"
             style="fill:#ff7f0e;stroke:#ff7f0e"
             id="use87" />
          <use
             xlink:href="#ma4d76023d6"
             x="137.6145"
             y="106.58031"
             style="fill:#ff7f0e;stroke:#ff7f0e"
             id="use88" />
          <use
             xlink:href="#ma4d76023d6"
             x="158.13341"
             y="104.14981"
             style="fill:#ff7f0e;stroke:#ff7f0e"
             id="use89" />
          <use
             xlink:href="#ma4d76023d6"
             x="163.26312"
             y="109.37326"
             style="fill:#ff7f0e;stroke:#ff7f0e"
             id="use90" />
          <use
             xlink:href="#ma4d76023d6"
             x="164.97304"
             y="90.266129"
             style="fill:#ff7f0e;stroke:#ff7f0e"
             id="use91" />
          <use
             xlink:href="#ma4d76023d6"
             x="173.52257"
             y="105.09762"
             style="fill:#ff7f0e;stroke:#ff7f0e"
             id="use92" />
          <use
             xlink:href="#ma4d76023d6"
             x="187.20184"
             y="88.124619"
             style="fill:#ff7f0e;stroke:#ff7f0e"
             id="use93" />
          <use
             xlink:href="#ma4d76023d6"
             x="195.75137"
             y="86.905174"
             style="fill:#ff7f0e;stroke:#ff7f0e"
             id="use94" />
          <use
             xlink:href="#ma4d76023d6"
             x="200.8811"
             y="89.249405"
             style="fill:#ff7f0e;stroke:#ff7f0e"
             id="use95" />
          <use
             xlink:href="#ma4d76023d6"
             x="207.72073"
             y="73.81617"
             style="fill:#ff7f0e;stroke:#ff7f0e"
             id="use96" />
          <use
             xlink:href="#ma4d76023d6"
             x="214.56036"
             y="95.827431"
             style="fill:#ff7f0e;stroke:#ff7f0e"
             id="use97" />
          <use
             xlink:href="#ma4d76023d6"
             x="216.27028"
             y="83.296631"
             style="fill:#ff7f0e;stroke:#ff7f0e"
             id="use98" />
          <use
             xlink:href="#ma4d76023d6"
             x="226.52972"
             y="88.522751"
             style="fill:#ff7f0e;stroke:#ff7f0e"
             id="use99" />
          <use
             xlink:href="#ma4d76023d6"
             x="236.78917"
             y="85.924469"
             style="fill:#ff7f0e;stroke:#ff7f0e"
             id="use100" />
          <use
             xlink:href="#ma4d76023d6"
             x="241.9189"
             y="82.929497"
             style="fill:#ff7f0e;stroke:#ff7f0e"
             id="use101" />
          <use
             xlink:href="#ma4d76023d6"
             x="259.01797"
             y="97.875885"
             style="fill:#ff7f0e;stroke:#ff7f0e"
             id="use102" />
          <use
             xlink:href="#ma4d76023d6"
             x="260.72787"
             y="98.626579"
             style="fill:#ff7f0e;stroke:#ff7f0e"
             id="use103" />
          <use
             xlink:href="#ma4d76023d6"
             x="274.40714"
             y="106.43644"
             style="fill:#ff7f0e;stroke:#ff7f0e"
             id="use104" />
          <use
             xlink:href="#ma4d76023d6"
             x="279.53687"
             y="83.131996"
             style="fill:#ff7f0e;stroke:#ff7f0e"
             id="use105" />
          <use
             xlink:href="#ma4d76023d6"
             x="294.92606"
             y="128.79021"
             style="fill:#ff7f0e;stroke:#ff7f0e"
             id="use106" />
          <use
             xlink:href="#ma4d76023d6"
             x="306.89542"
             y="156.24701"
             style="fill:#ff7f0e;stroke:#ff7f0e"
             id="use107" />
          <use
             xlink:href="#ma4d76023d6"
             x="308.60532"
             y="165.97623"
             style="fill:#ff7f0e;stroke:#ff7f0e"
             id="use108" />
          <use
             xlink:href="#ma4d76023d6"
             x="312.02512"
             y="141.53354"
             style="fill:#ff7f0e;stroke:#ff7f0e"
             id="use109" />
          <use
             xlink:href="#ma4d76023d6"
             x="317.15485"
             y="119.8326"
             style="fill:#ff7f0e;stroke:#ff7f0e"
             id="use110" />
          <use
             xlink:href="#ma4d76023d6"
             x="318.86475"
             y="160.53349"
             style="fill:#ff7f0e;stroke:#ff7f0e"
             id="use111" />
          <use
             xlink:href="#ma4d76023d6"
             x="334.25394"
             y="221.78693"
             style="fill:#ff7f0e;stroke:#ff7f0e"
             id="use112" />
          <use
             xlink:href="#ma4d76023d6"
             x="342.80347"
             y="221.63182"
             style="fill:#ff7f0e;stroke:#ff7f0e"
             id="use113" />
          <use
             xlink:href="#ma4d76023d6"
             x="346.2233"
             y="230.02046"
             style="fill:#ff7f0e;stroke:#ff7f0e"
             id="use114" />
          <use
             xlink:href="#ma4d76023d6"
             x="359.90256"
             y="196.353"
             style="fill:#ff7f0e;stroke:#ff7f0e"
             id="use115" />
          <use
             xlink:href="#ma4d76023d6"
             x="366.74219"
             y="136.35466"
             style="fill:#ff7f0e;stroke:#ff7f0e"
             id="use116" />
        </g>
      </g>
      <g
         id="line2d_19">
        <path
           d="m 69.218182,125.95963 1.709908,6.81925 1.709908,-6.45619 1.709908,19.65638 1.709908,5.66225 1.709908,-22.41321 1.709908,26.87373 1.709908,-17.16999 1.709908,13.43765 1.709908,-1.85439 1.709909,-18.15703 1.709908,32.51531 1.709908,-28.94583 1.709908,17.14139 1.709908,-5.94807 1.709908,2.91209 1.709908,5.82751 1.709908,-12.40364 1.709908,9.00577 1.709913,-5.37617 1.7099,-19.58227 1.70991,7.1026 1.70991,-9.90378 1.70991,13.32707 1.70991,-13.27112 1.7099,-22.0675 1.70991,30.88638 1.70991,-28.20319 1.70991,28.19618 1.70991,-26.04135 1.7099,2.99082 1.70991,17.59096 1.70991,-35.161212 1.70991,25.880962 1.70991,-16.82766 1.7099,0.5885 1.70991,17.60709 1.70991,-12.79226 1.70991,20.7372 1.70991,-7.16833 1.7099,-28.301265 1.70991,28.285265 1.70991,-12.81826 1.70991,11.61564 1.70991,2.1995 1.7099,-25.077022 1.70991,43.219882 1.70991,-40.958375 1.70991,21.862965 1.70991,-14.65332 1.7099,1.11903 1.70991,14.94963 1.70991,-32.538441 1.70991,28.467251 1.70991,-33.835656 1.70991,10.693781 1.7099,-18.615408 1.70991,7.729244 1.70991,11.253732 1.70991,-11.712244 1.70991,-0.282555 1.7099,6.995462 1.70991,-14.592513 1.70991,6.030115 1.70991,-11.868544 1.70991,-4.526548 1.7099,23.431125 1.70991,-40.518256 1.70991,41.340773 1.70991,-16.087072 1.70991,11.857911 1.7099,2.933707 1.70991,-26.919111 1.70991,40.090947 1.70991,-29.117497 1.70991,13.614895 1.7099,-15.188378 1.70991,4.47645 1.70991,2.328091 1.70991,-13.415014 1.70991,8.330374 1.7099,-13.03619 1.70991,15.146575 1.70991,-11.012523 1.70991,19.981782 1.70991,-2.906674 1.70991,-11.843114 1.7099,-15.195547 1.70991,13.998591 1.70991,-12.759259 1.70991,24.286893 1.70991,-25.305988 3.41981,40.649183 1.70991,-36.767892 1.70991,44.211912 1.70991,-57.58357 1.7099,59.77891 1.70991,-32.942751 1.70991,17.035628 1.70991,12.476153 1.70991,-31.779425 1.7099,30.51431 1.70991,-42.259141 1.70991,50.401666 1.70991,-30.399953 1.70991,18.406966 1.7099,-4.241375 1.70991,-2.384913 1.70991,13.221795 1.70991,-32.94965 1.70991,14.532119 1.70991,0.104089 1.7099,5.324649 1.70991,-3.683869 1.70991,13.821222 1.70991,-18.878568 1.70991,32.762918 1.7099,-47.03018 1.70991,32.834239 1.70991,-6.380674 1.70991,-15.249856 1.70991,36.251041 1.7099,-44.337628 1.70991,63.204488 1.70991,-44.801916 1.70991,32.420876 1.70991,-15.0735 1.7099,15.04912 1.70991,-4.66614 1.70991,-0.75499 1.70991,22.07749 1.70991,-22.46041 1.70991,26.37907 1.7099,-43.519466 1.70991,45.041466 1.70991,-26.00665 1.70991,15.52144 1.7099,-2.41676 1.70991,11.91921 1.70991,10.13068 1.70991,-22.24887 1.70991,-1.58066 1.70991,-20.95664 1.7099,25.30199 1.70991,-25.87862 1.70991,40.04283 1.70991,-23.0748 1.70991,24.58724 1.7099,-20.2965 1.70991,9.29609 1.70991,13.12327 1.70991,-24.44369 1.70991,44.71287 1.7099,-46.52338 1.70991,82.29327 1.70991,-79.01761 1.70991,39.93174 1.70991,-19.14829 1.7099,-4.69243 1.70991,62.71325 1.70991,-70.48764 1.70991,79.18228 1.70991,-53.63461 1.7099,19.80069 1.70991,-11.14765 1.70991,-12.96306 1.70991,8.06621 1.70991,0.28089 1.70991,-15.60432 1.7099,32.65137 1.70991,-20.55424 1.70991,-12.05227 1.70991,20.99785 1.70991,-47.58836 1.7099,68.30095 1.70991,-74.80219 1.70991,54.46402 1.70991,-25.41407 v 0"
           clip-path="url(#pdd40d6488a)"
           style="fill:none;stroke:#2ca02c;stroke-width:1.5;stroke-linecap:square"
           id="path116" />
      </g>
      <g
         id="patch_3">
        <path
           d="M 54,256.32 V 34.56"
           style="fill:none;stroke:#000000;stroke-width:0.8;stroke-linecap:square;stroke-linejoin:miter"
           id="path117" />
      </g>
      <g
         id="patch_4">
        <path
           d="M 388.8,256.32 V 34.56"
           style="fill:none;stroke:#000000;stroke-width:0.8;stroke-linecap:square;stroke-linejoin:miter"
           id="path118" />
      </g>
      <g
         id="patch_5">
        <path
           d="M 54,256.32 H 388.8"
           style="fill:none;stroke:#000000;stroke-width:0.8;stroke-linecap:square;stroke-linejoin:miter"
           id="path119" />
      </g>
      <g
         id="patch_6">
        <path
           d="M 54,34.56 H 388.8"
           style="fill:none;stroke:#000000;stroke-width:0.8;stroke-linecap:square;stroke-linejoin:miter"
           id="path120" />
      </g>
    </g>
  </g>
  <defs
     id="defs120">
    <clipPath
       id="pdd40d6488a">
      <rect
         x="54"
         y="34.56"
         width="334.8"
         height="221.76"
         id="rect120" />
    </clipPath>
  </defs>
</svg>
